:SAMPLES-PER-SECOND 30
:FULLY-SPECIFIED
:DEGREES
59
root  -3.55933 41.0252 -0.0999812 8.76671 -87.0486 -6.31641
RightUpLeg  2.17336 -1.23537 -0.817409
RightLeg  -6.60504 -23.0697 3.66538
RightFoot  2.36566 -0.197229 1.78206
RightToes  -3.1126e-008 1.75238e-005 3.56266e-009
Spine  14.3118 4.67047 5.19994
Spine1  -21.3175 4.84787 -9.81739
HEad  5.78101 -5.43815 3.76584
LeftShoulder1  0.170319 2.73034 -15.1418
LeftArm  -32.2688 53.4464 -57.8654
LeftForeArm  36.8952 -65.2435 -20.956
LeftHand  -0.415126 -4.06369 5.37845
RightShoulder  0.486604 -1.27207 15.1683
RightArm  -39.1362 45.3618 21.5576
RightForeArm  118.242 74.6904 135.413
RightHand  0.0323886 9.52429 -0.149997
LeftUpLeg  0.627237 1.31016 3.48612
LeftLeg  -3.52109 14.0083 -1.09277
LeftFoot  1.57992 0.437347 -3.92564
LeftToes  4.78049e-008 1.46235e-008 1.34219e-009
60
root  -3.57089 41.0261 -0.123534 8.07153 -87.0416 -5.83273
RightUpLeg  2.30707 -1.25361 -0.795801
RightLeg  -6.34061 -23.0305 3.52478
RightFoot  2.2683 -0.197775 1.78668
RightToes  -3.1126e-008 1.75238e-005 3.56266e-009
Spine  14.2495 4.61603 4.84692
Spine1  -20.8865 4.81115 -9.38822
HEad  4.94411 -4.66576 3.6498
LeftShoulder1  0.258927 2.33377 -15.2692
LeftArm  -31.1408 52.7735 -56.531
LeftForeArm  36.3508 -65.87 -21.7666
LeftHand  -0.456231 -3.21158 6.39861
RightShoulder  0.520392 -1.12546 15.2407
RightArm  -37.7504 44.9224 22.0606
RightForeArm  118.085 74.8363 134.923
RightHand  -0.0158214 9.45766 -0.524055
LeftUpLeg  0.893007 1.36666 3.51896
LeftLeg  -3.56897 13.9675 -1.12178
LeftFoot  1.5807 0.444307 -4.03193
LeftToes  4.78049e-008 1.46235e-008 1.34219e-009
61
root  -3.60733 41.0269 -0.143967 8.81053 -87.1579 -6.61253
RightUpLeg  2.35913 -1.2129 -0.73336
RightLeg  -6.25827 -22.9398 3.46289
RightFoot  2.24688 -0.201813 1.84716
RightToes  -3.1126e-008 1.75238e-005 3.56266e-009
Spine  13.9033 4.67989 4.36819
Spine1  -20.4574 4.86355 -8.75051
HEad  4.47726 -4.10781 3.62048
LeftShoulder1  0.293334 2.18311 -15.3625
LeftArm  -30.2022 51.5249 -55.0438
LeftForeArm  36.7898 -66.1361 -22.0345
LeftHand  -0.477267 -3.08775 6.7787
RightShoulder  0.544579 -1.00733 15.1537
RightArm  -36.7545 43.9442 22.0274
RightForeArm  117.616 74.8682 134.73
RightHand  -0.0308626 9.40054 -0.641239
LeftUpLeg  1.07191 1.42037 3.58768
LeftLeg  -3.6952 14.0353 -1.16043
LeftFoot  1.59012 0.446622 -4.06582
LeftToes  4.78049e-008 1.46235e-008 1.34219e-009
62
root  -3.63171 41.0276 -0.156296 9.99522 -87.1552 -7.7444
RightUpLeg  2.42055 -1.1869 -0.674465
RightLeg  -6.45106 -22.953 3.57627
RightFoot  2.34356 -0.204907 1.89374
RightToes  -3.1126e-008 1.75238e-005 3.56266e-009
Spine  13.7861 4.64397 4.05345
Spine1  -20.4557 4.79974 -8.31473
HEad  4.30333 -3.8377 3.62535
LeftShoulder1  0.336669 1.98446 -15.3021
LeftArm  -29.0051 50.0543 -53.4477
LeftForeArm  36.5432 -66.2554 -22.2213
LeftHand  -0.503305 -3.64128 6.7376
RightShoulder  0.5044 -1.16705 14.9171
RightArm  -35.7683 42.7061 22.6869
RightForeArm  117.68 74.8056 134.943
RightHand  0.0135173 9.48144 -0.29623
LeftUpLeg  1.06718 1.44979 3.66391
LeftLeg  -3.7359 13.9991 -1.15259
LeftFoot  1.62106 0.445486 -4.04384
LeftToes  4.78049e-008 1.46235e-008 1.34219e-009
63
root  -3.64455 41.028 -0.163767 11.1467 -87.1843 -8.89001
RightUpLeg  2.51514 -1.18306 -0.627819
RightLeg  -6.63949 -22.9254 3.69124
RightFoot  2.41593 -0.204775 1.89008
RightToes  -3.1126e-008 1.75238e-005 3.56266e-009
Spine  13.3752 4.61294 3.4807
Spine1  -19.9482 4.75407 -7.44056
HEad  4.20703 -3.33201 3.48872
LeftShoulder1  0.372282 1.84004 -15.5383
LeftArm  -27.9738 48.2949 -52.0352
LeftForeArm  36.5053 -66.7945 -22.9288
LeftHand  -0.490864 -2.95531 7.05587
RightShoulder  0.504541 -1.15898 14.8395
RightArm  -35.4346 41.0528 22.5278
RightForeArm  117.757 74.7563 135.111
RightHand  -0.030531 9.32327 -0.637189
LeftUpLeg  1.09073 1.52023 3.7486
LeftLeg  -3.74999 13.966 -1.17383
LeftFoot  1.62578 0.445046 -4.02855
LeftToes  4.78049e-008 1.46235e-008 1.34219e-009
64
root  -3.64904 41.0282 -0.165928 11.475 -87.0644 -9.28107
RightUpLeg  2.55996 -1.14156 -0.566165
RightLeg  -6.5637 -23.1097 3.65409
RightFoot  2.39547 -0.206611 1.91581
RightToes  -3.1126e-008 1.75238e-005 3.56266e-009
Spine  13.1257 4.46725 2.6055
Spine1  -19.6145 4.56083 -6.14504
HEad  4.15532 -2.53961 3.31409
LeftShoulder1  0.386895 1.79803 -15.8777
LeftArm  -27.2695 46.4995 -50.7764
LeftForeArm  37.4815 -67.5061 -23.771
LeftHand  -0.440734 -3.02676 6.31602
RightShoulder  0.532814 -1.0394 14.9505
RightArm  -35.4157 38.726 21.8246
RightForeArm  118.251 74.4592 136.126
RightHand  0.0288687 9.21501 -0.169553
LeftUpLeg  1.14235 1.54504 3.79128
LeftLeg  -3.73753 13.8049 -1.14949
LeftFoot  1.64693 0.442303 -3.9712
LeftToes  4.78049e-008 1.46235e-008 1.34219e-009
65
root  -3.64048 41.0286 -0.16731 10.2184 -86.7223 -8.0103
RightUpLeg  2.56794 -1.17744 -0.58788
RightLeg  -6.58019 -23.4018 3.71738
RightFoot  2.36913 -0.203797 1.86729
RightToes  -3.1126e-008 1.75238e-005 3.56266e-009
Spine  12.8304 4.15352 1.84397
Spine1  -19.2618 4.21125 -5.07672
HEad  3.83063 -2.036 3.36403
LeftShoulder1  0.35864 1.92838 -15.9571
LeftArm  -25.9485 44.3109 -49.6507
LeftForeArm  38.004 -68.3134 -24.9012
LeftHand  -0.486192 -2.83606 7.08978
RightShoulder  0.504076 -1.2119 15.3745
RightArm  -35.2534 36.2103 21.0498
RightForeArm  118.288 74.304 136.592
RightHand  -0.0238643 9.08975 -0.584344
LeftUpLeg  1.03631 1.5368 3.78989
LeftLeg  -3.69575 13.4723 -1.13448
LeftFoot  1.70166 0.448507 -4.04495
LeftToes  4.78049e-008 1.46235e-008 1.34219e-009
66
root  -3.6175 41.0294 -0.175227 8.44232 -86.0624 -6.25728
RightUpLeg  2.61773 -1.27546 -0.625088
RightLeg  -6.57589 -23.9599 3.82823
RightFoot  2.31413 -0.203923 1.86138
RightToes  -3.1126e-008 1.75238e-005 3.56266e-009
Spine  12.6151 3.72026 1.17794
Spine1  -18.9459 3.74727 -4.08534
HEad  3.82519 -2.10626 3.20507
LeftShoulder1  0.405894 1.74713 -16.3416
LeftArm  -24.4684 41.6523 -48.1889
LeftForeArm  38.6728 -69.0378 -25.9715
LeftHand  -0.472106 -2.63583 7.04921
RightShoulder  0.543485 -1.05558 15.5629
RightArm  -35.5181 32.6835 19.9864
RightForeArm  119.088 73.9645 137.718
RightHand  -0.0507034 9.23819 -0.798292
LeftUpLeg  0.859612 1.55863 3.80309
LeftLeg  -3.58392 12.8181 -1.12423
LeftFoot  1.76653 0.446301 -3.97743
LeftToes  4.78049e-008 1.46235e-008 1.34219e-009
67
root  -3.60897 41.0323 -0.185479 5.76886 -85.526 -3.71092
RightUpLeg  2.70451 -1.46031 -0.776875
RightLeg  -6.36601 -24.3083 3.80493
RightFoot  2.17214 -0.205743 1.87777
RightToes  -3.1126e-008 1.75238e-005 3.56266e-009
Spine  11.9731 3.25795 -0.153995
Spine1  -17.9891 3.21719 -2.31075
HEad  4.0248 -1.53347 2.82028
LeftShoulder1  0.421632 1.70333 -16.6735
LeftArm  -23.6478 38.2568 -47.1203
LeftForeArm  39.7199 -69.4604 -26.5298
LeftHand  -0.476639 -2.5822 7.15767
RightShoulder  0.632915 -0.722458 16.183
RightArm  -35.8955 29.3856 18.5026
RightForeArm  118.422 73.9255 137.708
RightHand  -0.0257916 8.95702 -0.601325
LeftUpLeg  1.04911 1.50869 3.70146
LeftLeg  -3.87295 12.3261 -1.2136
LeftFoot  1.94814 0.44934 -3.95823
LeftToes  4.78049e-008 1.46235e-008 1.34219e-009
